    <svg
      xmlns="http://www.w3.org/2000/svg">
    <symbol  id="telegram"  viewBox="0 0 32 32">
    <path  d="M16 0.5c-8.563 0-15.5 6.938-15.5 15.5s6.938 15.5 15.5 15.5c8.563 0 15.5-6.938 15.5-15.5s-6.938-15.5-15.5-15.5zM23.613 11.119l-2.544 11.988c-0.188 0.85-0.694 1.056-1.4 0.656l-3.875-2.856-1.869 1.8c-0.206 0.206-0.381 0.381-0.781 0.381l0.275-3.944 7.181-6.488c0.313-0.275-0.069-0.431-0.482-0.156l-8.875 5.587-3.825-1.194c-0.831-0.262-0.85-0.831 0.175-1.231l14.944-5.763c0.694-0.25 1.3 0.169 1.075 1.219z"/>
    </symbol>

    <symbol id="whatsapp"  viewBox="0 0 32 32" >
    <path  d="M17,0C8.7,0,2,6.7,2,15c0,3.4,1.1,6.6,3.2,9.2l-2.1,6.4c-0.1,0.4,0,0.8,0.3,1.1C3.5,31.9,3.8,32,4,32c0.1,0,0.3,0,0.4-0.1
	l6.9-3.1C13.1,29.6,15,30,17,30c8.3,0,15-6.7,15-15S25.3,0,17,0z M25.7,20.5c-0.4,1.2-1.9,2.2-3.2,2.4C22.2,23,21.9,23,21.5,23
	c-0.8,0-2-0.2-4.1-1.1c-2.4-1-4.8-3.1-6.7-5.8L10.7,16C10.1,15.1,9,13.4,9,11.6c0-2.2,1.1-3.3,1.5-3.8c0.5-0.5,1.2-0.8,2-0.8
	c0.2,0,0.3,0,0.5,0c0.7,0,1.2,0.2,1.7,1.2l0.4,0.8c0.3,0.8,0.7,1.7,0.8,1.8c0.3,0.6,0.3,1.1,0,1.6c-0.1,0.3-0.3,0.5-0.5,0.7
	c-0.1,0.2-0.2,0.3-0.3,0.3c-0.1,0.1-0.1,0.1-0.2,0.2c0.3,0.5,0.9,1.4,1.7,2.1c1.2,1.1,2.1,1.4,2.6,1.6l0,0c0.2-0.2,0.4-0.6,0.7-0.9
	l0.1-0.2c0.5-0.7,1.3-0.9,2.1-0.6c0.4,0.2,2.6,1.2,2.6,1.2l0.2,0.1c0.3,0.2,0.7,0.3,0.9,0.7C26.2,18.5,25.9,19.8,25.7,20.5z"/>   
    </symbol>

    <symbol id="insta" viewBox="0 0 19.2 19.2" >
    <path xmlns="http://www.w3.org/2000/svg" d="M13.498 6.651a1.656 1.656 0 0 0-.95-.949 2.766 2.766 0 0 0-.928-.172c-.527-.024-.685-.03-2.02-.03s-1.493.006-2.02.03a2.766 2.766 0 0 0-.929.172 1.656 1.656 0 0 0-.949.95 2.766 2.766 0 0 0-.172.928c-.024.527-.03.685-.03 2.02s.006 1.493.03 2.02a2.766 2.766 0 0 0 .172.929 1.656 1.656 0 0 0 .95.949 2.766 2.766 0 0 0 .928.172c.527.024.685.029 2.02.029s1.493-.005 2.02-.03a2.766 2.766 0 0 0 .929-.171 1.656 1.656 0 0 0 .949-.95 2.766 2.766 0 0 0 .172-.928c.024-.527.029-.685.029-2.02s-.005-1.493-.03-2.02a2.766 2.766 0 0 0-.171-.929zM9.6 12.168A2.568 2.568 0 1 1 12.168 9.6 2.568 2.568 0 0 1 9.6 12.168zm2.669-4.637a.6.6 0 1 1 .6-.6.6.6 0 0 1-.6.6zM11.267 9.6A1.667 1.667 0 1 1 9.6 7.933 1.667 1.667 0 0 1 11.267 9.6zM9.6 0a9.6 9.6 0 1 0 9.6 9.6A9.6 9.6 0 0 0 9.6 0zm4.97 11.661a3.67 3.67 0 0 1-.233 1.214 2.556 2.556 0 0 1-1.462 1.462 3.67 3.67 0 0 1-1.213.233c-.534.024-.704.03-2.062.03s-1.528-.006-2.062-.03a3.67 3.67 0 0 1-1.213-.233 2.556 2.556 0 0 1-1.462-1.462 3.67 3.67 0 0 1-.233-1.213c-.024-.534-.03-.704-.03-2.062s.006-1.528.03-2.062a3.67 3.67 0 0 1 .232-1.213 2.556 2.556 0 0 1 1.463-1.463 3.67 3.67 0 0 1 1.213-.232c.534-.024.704-.03 2.062-.03s1.528.006 2.062.03a3.67 3.67 0 0 1 1.213.232 2.556 2.556 0 0 1 1.462 1.463 3.67 3.67 0 0 1 .233 1.213c.024.534.03.704.03 2.062s-.006 1.528-.03 2.062z"/>
    </symbol>

        <symbol id="youtube"  viewBox="-143 145 512 512">
        <polygon points="78.9,450.3 162.7,401.1 78.9,351.9 	"/>
	    <path d="M113,145c-141.4,0-256,114.6-256,256s114.6,256,256,256s256-114.6,256-256S254.4,145,113,145z M241,446.8L241,446.8
		c0,44.1-44.1,44.1-44.1,44.1H29.1c-44.1,0-44.1-44.1-44.1-44.1v-91.5c0-44.1,44.1-44.1,44.1-44.1h167.8c44.1,0,44.1,44.1,44.1,44.1
		V446.8z"/>
        </symbol>

    </svg>
